<svg width="334" height="221" viewBox="0 0 334 221" fill="none" xmlns="http://www.w3.org/2000/svg">
<path d="M277.49 11.5701L268.08 37.0001L281.79 22.0501L333.2 23.5001L277.49 11.5701Z" fill="#002C44"/>
<path d="M268.37 0C268.37 0 278.81 9.01 277.39 11.87L332.71 23.21C332.7 23.21 306.09 4.55 268.37 0Z" fill="#FF7B3A"/>
<path d="M267.66 37.49C267.23 38.3 288.63 35.31 288.63 35.31L281.29 21.75C281.29 21.75 271.45 30.4 267.66 37.49Z" fill="#FBC949"/>
<path d="M281.29 21.75C281.29 21.75 291.35 38.21 285.72 47.77L333.59 23.42C333.59 23.42 286.38 20.78 281.29 21.75Z" fill="#F75E28"/>
<path d="M2 164.51C2.82 191.84 26.39 216.76 53.67 218.62C80.95 220.48 107.88 198.58 111.15 171.43C111.96 164.68 111.36 157.44 107.62 151.76C103.88 146.08 96.4 142.52 90.01 144.87C82.81 147.51 79.65 156.81 82.06 164.09C84.48 171.37 91.13 176.57 98.28 179.35C113.43 185.24 131.91 181.29 143.32 169.71C156.16 156.67 159.03 137.19 163.88 119.55C174.51 80.8301 192.45 20.8601 250.98 26.1801" stroke="#FBCD5F" stroke-width="3" stroke-miterlimit="10" stroke-linecap="round" stroke-linejoin="round" stroke-dasharray="8 8"/>
</svg>
